<?xml version="1.0" encoding="utf-8"?>
<!-- Generator: Adobe Illustrator 23.0.1, SVG Export Plug-In . SVG Version: 6.00 Build 0)  -->
<svg version="1.1" id="Layer_1" xmlns="http://www.w3.org/2000/svg" xmlns:xlink="http://www.w3.org/1999/xlink" x="0px" y="0px"
	 viewBox="0 0 64 64" style="enable-background:new 0 0 64 64;" xml:space="preserve">
<style type="text/css">
	.st0{fill:#F4C167;}
	.st1{fill:#676B7F;}
	.st2{fill:#E8821C;}
	.st3{fill:#D6D7D8;}
	.st4{fill:#878B9B;}
	.st5{fill:#4A4A56;}
	.st6{fill:#F4A422;}
</style>
<title>Mistake-error-wrong-lamp-crack</title>
<path class="st0" d="M39,47l0.6,1.1c0.3,0.6,0.3,1.2,0,1.8L39,51l0.6,1.1c0.3,0.6,0.3,1.2,0,1.8L39,55v2.5c0,0.9-0.6,1.7-1.5,1.9
	L32,61l-5.5-1.6c-0.9-0.2-1.5-1-1.5-1.9V55l-0.6-1.1c-0.3-0.6-0.3-1.2,0-1.8L25,51l-0.6-1.1c-0.3-0.6-0.3-1.2,0-1.8L25,47v-3
	l-7.8-11.4c-2.1-3-3.2-6.6-3.2-10.2V21c0-9.9,8.1-18,18-18l0,0c9.9,0,18,8.1,18,18v1.4c0,3.6-1.1,7.2-3.2,10.2L39,44V47z"/>
<path class="st1" d="M25,44v3l-0.6,1.1c-0.3,0.6-0.3,1.2,0,1.8L25,51l-0.6,1.1c-0.3,0.6-0.3,1.2,0,1.8L25,55v2.5
	c0,0.9,0.6,1.7,1.5,1.9L32,61l5.5-1.6c0.9-0.2,1.5-1,1.5-1.9V55l0.6-1.1c0.3-0.6,0.3-1.2,0-1.8L39,51l0.6-1.1c0.3-0.6,0.3-1.2,0-1.8
	L39,47v-3H25z"/>
<path class="st2" d="M35,44h-2V31h-2v13h-2V31h-2.5C24,31,22,29,22,26.5s2-4.5,4.5-4.5s4.5,2,4.5,4.5V29h2v-2.5c0-2.5,2-4.5,4.5-4.5
	s4.5,2,4.5,4.5S40,31,37.5,31H35V44z M35,29h2.5c1.4,0,2.5-1.1,2.5-2.5S38.9,24,37.5,24S35,25.1,35,26.5V29z M26.5,24
	c-1.4,0-2.5,1.1-2.5,2.5s1.1,2.5,2.5,2.5H29v-2.5C29,25.1,27.9,24,26.5,24z"/>
<rect x="50.2" y="6" transform="matrix(0.7071 -0.7071 0.7071 0.7071 10.5736 39.5269)" class="st3" width="5.7" height="2"/>
<rect x="52" y="12" class="st3" width="5" height="2"/>
<rect x="54.5" y="16.6" transform="matrix(0.5145 -0.8575 0.8575 0.5145 10.2244 57.0582)" class="st3" width="2" height="5.8"/>
<rect x="5" y="19" class="st3" width="5" height="2"/>
<rect x="8" y="10.2" transform="matrix(0.7071 -0.7071 0.7071 0.7071 -6.5563 10.1716)" class="st3" width="2" height="5.7"/>
<rect x="6.2" y="27" transform="matrix(0.7071 -0.7071 0.7071 0.7071 -17.163 14.565)" class="st3" width="5.7" height="2"/>
<path class="st4" d="M25,47l-0.6,1.1c-0.3,0.6-0.3,1.2,0,1.8L25,51l14-4v-3H25V47z"/>
<path class="st5" d="M37.6,59.4c0.9-0.2,1.5-1,1.5-1.9V55l0.6-1.1c0.3-0.6,0.3-1.2,0-1.8L25,56v1.5c0,0.9,0.6,1.7,1.5,1.9L32,61
	L37.6,59.4z"/>
<path class="st6" d="M22.7,19.7l-1.4-1.4L20,19.6l-3-3l-2.9,2.9c0,0.5-0.1,1-0.1,1.5v1.4l0,0l3-3l3,3L22.7,19.7z"/>
<path class="st6" d="M47.6,12L44,15.6l-4.5-4.5L35,15.6L30.4,11H26v2h3.6l5.4,5.4l4.5-4.5l4.5,4.5l4.5-4.5
	C48.3,13.2,47.9,12.6,47.6,12z"/>
<path d="M32,2c-10.5,0-19,8.5-19,19v1.4c0,3.8,1.2,7.6,3.3,10.8L24,44.3v2.5l-0.4,0.9c-0.4,0.8-0.4,1.8,0,2.7l0.3,0.7l-0.3,0.7
	c-0.4,0.8-0.4,1.8,0,2.7l0.4,0.9v2.3c0,1.3,0.9,2.5,2.2,2.9L32,62l5.8-1.7c1.3-0.4,2.2-1.5,2.2-2.9v-2.3l0.4-0.9
	c0.4-0.8,0.4-1.8,0-2.7L40.1,51l0.3-0.7c0.4-0.8,0.4-1.8,0-2.7L40,46.8v-2.5l7.7-11.1C49.8,30,51,26.3,51,22.4V21
	C51,10.5,42.5,2,32,2z M25.3,49.4c-0.1-0.3-0.1-0.6,0-0.9l0.7-1.3V45h12v1.2l-12.5,3.6L25.3,49.4z M29,29h-2.5
	c-1.4,0-2.5-1.1-2.5-2.5s1.1-2.5,2.5-2.5s2.5,1.1,2.5,2.5V29z M33,43h-2V31h2V43z M26,54.7l-0.6-1.3c-0.1-0.3-0.1-0.6,0-0.9l0.4-0.7
	l12.8-3.7l0.2,0.4c0.1,0.3,0.1,0.6,0,0.9L37.9,51l0.2,0.5L26,54.7z M38,54.8v2.7c0,0.4-0.3,0.8-0.7,1L32,60l-5.3-1.5
	c-0.4-0.1-0.7-0.5-0.7-1v-0.7l12.7-3.4c0,0,0,0,0,0.1L38,54.8z M49,22.4c0,3.4-1,6.8-3,9.6l-7.5,11H35V31h2.5c2.5,0,4.5-2,4.5-4.5
	S40,22,37.5,22S33,24,33,26.5V29h-2v-2.5c0-2.5-2-4.5-4.5-4.5S22,24,22,26.5s2,4.5,4.5,4.5H29v12h-3.5L18,32c-2-2.8-3-6.2-3-9.6v-1
	l2-2l3,3l2.7-2.7l-1.4-1.4L20,19.6l-3-3l-1.8,1.8C16.7,9.1,25.4,2.8,34.6,4.2c5.2,0.8,9.7,4,12.2,8.5L44,15.6l-4.5-4.5L35,15.6
	L30.4,11H26v2h3.6l5.4,5.4l4.5-4.5l4.5,4.5l3.8-3.8c0.8,2,1.2,4.2,1.2,6.3V22.4z M35,29v-2.5c0-1.4,1.1-2.5,2.5-2.5s2.5,1.1,2.5,2.5
	S38.9,29,37.5,29H35z"/>
<rect x="50.2" y="6" transform="matrix(0.7071 -0.7071 0.7071 0.7071 10.5736 39.5269)" width="5.7" height="2"/>
<rect x="52" y="12" width="5" height="2"/>
<rect x="54.5" y="16.6" transform="matrix(0.5146 -0.8574 0.8574 0.5146 10.2183 57.0507)" width="2" height="5.8"/>
<rect x="5" y="19" width="5" height="2"/>
<rect x="8" y="10.2" transform="matrix(0.7071 -0.7071 0.7071 0.7071 -6.5563 10.1716)" width="2" height="5.7"/>
<rect x="6.2" y="27" transform="matrix(0.7071 -0.7071 0.7071 0.7071 -17.163 14.565)" width="5.7" height="2"/>
</svg>
