<?xml version="1.0" encoding="UTF-8"?>
<!DOCTYPE svg PUBLIC "-//W3C//DTD SVG 1.1//EN" "http://www.w3.org/Graphics/SVG/1.1/DTD/svg11.dtd">
<!-- Creator: CorelDRAW -->
<svg xmlns="http://www.w3.org/2000/svg" xml:space="preserve" width="512px" height="512px" style="shape-rendering:geometricPrecision; text-rendering:geometricPrecision; image-rendering:optimizeQuality; fill-rule:evenodd; clip-rule:evenodd"
viewBox="0 0 512 512"
 xmlns:xlink="http://www.w3.org/1999/xlink">
 <defs>
  <style type="text/css">
   <![CDATA[
    .fil0 {fill:#52050D}
    .fil1 {fill:#f2b138}
    .fil2 {fill:#333333}
   ]]>
  </style>
 </defs>
 <g id="Layer_x0020_1">
  <metadata id="CorelCorpID_0Corel-Layer"/>
  <path class="fil0" d="M306.355 347.224c-1.15748,0 -2.31851,-0.285828 -3.37442,-0.866932l-46.982 -25.8674 -46.982 25.8674c-5.17088,2.84528 -11.3563,-1.65001 -10.2473,-7.44569l10.0807 -52.6761 -39.1182 -36.6899c-4.30867,-4.04056 -1.94882,-11.3103 3.91419,-12.0473l53.2135 -6.68978 22.8048 -48.5411c2.51103,-5.34687 10.154,-5.3445 12.665,0l22.8048 48.5411 53.2135 6.68978c5.86065,0.735829 8.2205,8.00672 3.91419,12.0473l-39.1182 36.6899 10.0807 52.6761c0.829136,4.33112 -2.50631,8.31262 -6.86931,8.31262zm-50.3553 164.688c-141.416,0 -255.911,-114.494 -255.911,-255.911 0,-141.416 114.495,-255.911 255.911,-255.911 141.415,0 255.911,114.496 255.911,255.911 0,141.416 -114.495,255.911 -255.911,255.911zm0 -497.827c-133.393,0 -241.916,108.522 -241.916,241.915 0,133.392 108.525,241.916 241.916,241.916 133.392,0 241.915,-108.525 241.915,-241.916 0,-133.393 -108.522,-241.915 -241.915,-241.915zm0 467.838c-124.846,0 -225.923,-101.078 -225.923,-225.923 0,-124.844 101.079,-225.922 225.923,-225.922 124.843,0 225.923,101.079 225.923,225.922 0,124.845 -101.078,225.923 -225.923,225.923zm0 -437.85c-116.857,0 -211.928,95.0696 -211.928,211.927 0,116.857 95.0708,211.928 211.928,211.928 116.857,0 211.927,-95.0708 211.927,-211.928 0,-116.857 -95.0696,-211.927 -211.927,-211.927zm91.8086 360.205c-1.15748,0 -2.31851,-0.287009 -3.37442,-0.868113l-88.4341 -48.6887 -88.4353 48.6887c-5.1697,2.84528 -11.3563,-1.65001 -10.2473,-7.44569l18.9768 -99.1515 -73.6325 -69.0604c-4.30749,-4.04056 -1.94882,-11.3103 3.91419,-12.0473l100.163 -12.5918 42.9273 -91.3692c2.51103,-5.34687 10.154,-5.34569 12.665,0l42.9261 91.3692 100.164 12.5918c5.86183,0.73701 8.2205,8.00672 3.91419,12.0473l-73.6313 69.0593 18.9756 99.1538c0.830318,4.33348 -2.51103,8.31262 -6.87049,8.31262zm-224.709 -176.545l65.5785 61.5073c1.74922,1.64174 2.53702,4.063 2.08583,6.41931l-16.9016 88.3078 78.7621 -43.3643c2.10119,-1.15748 4.64883,-1.15748 6.75002,0l78.7632 43.3643 -16.9004 -88.3078c-0.451182,-2.35513 0.335434,-4.77757 2.08465,-6.41931l65.5809 -61.5073 -89.2089 -11.2146c-2.37993,-0.29882 -4.43978,-1.79646 -5.46025,-3.96734l-38.2336 -81.377 -38.2324 81.377c-1.01929,2.16969 -3.08032,3.66733 -5.46025,3.96734l-89.2078 11.2146zm67.0703 21.7926l31.0654 29.1367c1.74922,1.64174 2.53702,4.063 2.08465,6.41931l-8.00554 41.8324 37.31 -20.5418c2.10119,-1.15748 4.64765,-1.15748 6.74884,0l37.31 20.5418 -8.00554 -41.8324c-0.451182,-2.35513 0.335434,-4.77757 2.08465,-6.41931l31.0666 -29.1367 -42.2576 -5.31143c-2.38111,-0.29882 -4.44096,-1.79646 -5.46025,-3.96852l-18.1123 -38.5466 -18.1111 38.5466c-1.02048,2.17087 -3.08032,3.66852 -5.46025,3.96852l-42.2576 5.31143z"/>
  <path class="fil1" d="M296.683 326.915l-8.00554 -41.8324c-0.451182,-2.35513 0.335434,-4.77757 2.08465,-6.41931l31.0666 -29.1367 -42.2576 -5.31143c-2.38111,-0.29882 -4.44096,-1.79646 -5.46025,-3.96852l-18.1123 -38.5466 -18.1111 38.5466c-1.02048,2.17087 -3.08032,3.66852 -5.46025,3.96852l-42.2576 5.31143 31.0654 29.1367c1.74922,1.64174 2.53702,4.063 2.08465,6.41931l-8.00554 41.8324 37.31 -20.5418c2.10119,-1.15748 4.64765,-1.15748 6.74884,0l37.31 20.5418z"/>
  <path class="fil2" d="M262.33 182.267l22.8048 48.5411 53.2135 6.68978c5.86065,0.735829 8.2205,8.00672 3.91419,12.0473l-39.1182 36.6899 10.0807 52.6761c0.829136,4.33112 -2.50631,8.31262 -6.86931,8.31262 -1.15748,0 -2.31851,-0.285828 -3.37442,-0.866932l-46.982 -25.8674 -46.982 25.8674c-5.17088,2.84528 -11.3563,-1.65001 -10.2473,-7.44569l10.0807 -52.6761 -39.1182 -36.6899c-4.30867,-4.04056 -1.94882,-11.3103 3.91419,-12.0473l53.2135 -6.68978 22.8048 -48.5411c2.51103,-5.34687 10.154,-5.3445 12.665,0zm75.8081 201.701l-16.9004 -88.3078c-0.451182,-2.35513 0.335434,-4.77757 2.08465,-6.41931l65.5809 -61.5073 -89.2089 -11.2146c-2.37993,-0.29882 -4.43978,-1.79646 -5.46025,-3.96734l-38.2336 -81.377 -38.2324 81.377c-1.01929,2.16969 -3.08032,3.66733 -5.46025,3.96734l-89.2078 11.2146 65.5785 61.5073c1.74922,1.64174 2.53702,4.063 2.08583,6.41931l-16.9016 88.3078 78.7621 -43.3643c2.10119,-1.15748 4.64883,-1.15748 6.75002,0l78.7632 43.3643z"/>
  <path class="fil1" d="M262.331 111.744l42.9261 91.3692 100.164 12.5918c5.86183,0.73701 8.2205,8.00672 3.91419,12.0473l-73.6313 69.0593 18.9756 99.1538c0.830318,4.33348 -2.51103,8.31262 -6.87049,8.31262 -1.15748,0 -2.31851,-0.287009 -3.37442,-0.868113l-88.4341 -48.6887 -88.4353 48.6887c-5.1697,2.84528 -11.3563,-1.65001 -10.2473,-7.44569l18.9768 -99.1515 -73.6325 -69.0604c-4.30749,-4.04056 -1.94882,-11.3103 3.91419,-12.0473l100.163 -12.5918 42.9273 -91.3692c2.51103,-5.34687 10.154,-5.34569 12.665,0zm-218.259 144.256c0,116.857 95.0708,211.928 211.928,211.928 116.857,0 211.927,-95.0708 211.927,-211.928 0,-116.857 -95.0696,-211.927 -211.927,-211.927 -116.857,0 -211.928,95.0696 -211.928,211.927z"/>
  <path class="fil2" d="M256 30.078c124.843,0 225.923,101.079 225.923,225.922 0,124.845 -101.078,225.923 -225.923,225.923 -124.846,0 -225.923,-101.078 -225.923,-225.923 0,-124.844 101.079,-225.922 225.923,-225.922zm-241.916 225.922c0,133.392 108.525,241.916 241.916,241.916 133.392,0 241.915,-108.525 241.915,-241.916 0,-133.393 -108.522,-241.915 -241.915,-241.915 -133.393,0 -241.916,108.522 -241.916,241.915z"/>
 </g>
</svg>
